<svg width="150" height="34" viewBox="0 0 150 34" fill="none" xmlns="http://www.w3.org/2000/svg">
<path d="M123.344 21.7339C123.905 21.7248 124.46 21.8361 124.972 22.0599C125.428 22.2657 125.824 22.5784 126.126 22.97C126.424 23.3691 126.608 23.8376 126.662 24.3284H125.201C125.152 24.0838 125.05 23.8523 124.902 23.6492C124.738 23.4346 124.524 23.2621 124.276 23.1466C123.988 23.0126 123.671 22.9474 123.351 22.9564C123.052 22.9512 122.754 23.0092 122.479 23.1264C122.204 23.2436 121.959 23.4173 121.759 23.6356C121.306 24.2053 121.087 24.9201 121.147 25.6392C121.108 26.3415 121.308 27.0366 121.717 27.6157C121.914 27.8604 122.169 28.0549 122.459 28.1826C122.75 28.3104 123.068 28.3675 123.386 28.3492C123.703 28.3567 124.016 28.2867 124.297 28.1454C124.543 28.0243 124.755 27.8472 124.916 27.6292C125.066 27.4279 125.166 27.1955 125.208 26.9501H126.662C126.616 27.429 126.433 27.8857 126.133 28.2677C125.827 28.6532 125.428 28.9588 124.972 29.1574C124.466 29.3734 123.918 29.48 123.365 29.4698C122.682 29.4823 122.006 29.3307 121.397 29.0284C120.823 28.7384 120.355 28.2831 120.055 27.7243C119.712 27.0816 119.545 26.3635 119.568 25.6392C119.553 24.9349 119.708 24.237 120.02 23.6017C120.307 23.0333 120.759 22.5607 121.321 22.2433C121.937 21.9004 122.635 21.7245 123.344 21.7339Z" fill="#00AA61"/>
<path d="M131.836 29.4224C131.143 29.4372 130.457 29.2831 129.84 28.9741C129.273 28.6798 128.81 28.2253 128.512 27.6701C128.183 27.0278 128.023 26.3161 128.046 25.5986C128.03 24.8948 128.183 24.1973 128.491 23.561C128.777 22.9945 129.227 22.5223 129.784 22.2026C130.423 21.8623 131.144 21.6957 131.871 21.7204C132.563 21.7017 133.248 21.8585 133.86 22.1755C134.428 22.4867 134.884 22.9609 135.167 23.5338C135.496 24.1904 135.656 24.9155 135.633 25.6461C135.648 26.3337 135.498 27.0151 135.195 27.6361C134.917 28.2014 134.474 28.6739 133.922 28.9945C133.279 29.3176 132.558 29.4654 131.836 29.4224ZM131.836 28.2338C132.25 28.2486 132.657 28.1318 132.997 27.901C133.321 27.6612 133.563 27.3324 133.693 26.9569C133.86 26.5066 133.94 26.0299 133.929 25.551C133.936 25.0901 133.866 24.6313 133.721 24.1926C133.593 23.8088 133.35 23.4707 133.025 23.2214C132.674 22.9689 132.244 22.8418 131.808 22.8614C131.388 22.8447 130.973 22.9614 130.626 23.1942C130.306 23.4288 130.064 23.7501 129.93 24.1179C129.762 24.5728 129.682 25.0541 129.694 25.5374C129.687 25.9983 129.757 26.4573 129.903 26.8958C130.034 27.2802 130.275 27.6197 130.598 27.8738C130.958 28.1304 131.398 28.2575 131.843 28.2338H131.836Z" fill="#00AA61"/>
<path d="M137.407 29.2797V21.8087H139.048V22.8818C139.299 22.5352 139.621 22.2437 139.994 22.026C140.464 21.7688 140.999 21.6442 141.538 21.666C141.84 21.6651 142.14 21.7109 142.428 21.8019C142.729 21.8877 143.012 22.0258 143.262 22.2094C143.517 22.3856 143.724 22.6184 143.868 22.8886C144.134 22.5221 144.487 22.2238 144.897 22.0192C145.344 21.7871 145.844 21.6702 146.35 21.6796C146.654 21.682 146.955 21.7231 147.247 21.8019C147.56 21.889 147.853 22.0343 148.11 22.2297C148.392 22.4474 148.614 22.7297 148.757 23.0516C148.935 23.4825 149.018 23.9454 149 24.4099V29.2865H147.31V24.5661C147.327 24.233 147.25 23.9018 147.087 23.6085C146.947 23.3936 146.744 23.2255 146.503 23.1263C146.26 23.0308 146 22.9824 145.738 22.9836C145.483 22.9885 145.229 23.032 144.987 23.1127C144.719 23.1916 144.478 23.3422 144.292 23.5474C144.095 23.7768 143.996 24.0707 144.014 24.3692V29.2797H142.331V24.2401C142.335 23.9926 142.249 23.7515 142.087 23.5609C141.927 23.3738 141.721 23.229 141.489 23.1399C141.269 23.0497 141.033 23.0013 140.794 22.9972C140.525 22.9991 140.259 23.0474 140.008 23.1399C139.753 23.2343 139.528 23.391 139.354 23.5949C139.168 23.8162 139.074 24.0972 139.09 24.3828V29.2933L137.407 29.2797Z" fill="#00AA61"/>
<path d="M54.9807 29.4223V15.2885C54.9807 13.4253 55.7381 11.6383 57.0864 10.3202C58.4348 9.00212 60.2639 8.26071 62.1717 8.25891C64.9536 8.25891 67.0399 8.73434 68.4796 9.67162C69.1733 10.1075 69.7385 10.7128 70.119 11.4275C70.4996 12.1423 70.6824 12.9418 70.6494 13.7467C70.6768 14.8036 70.3305 15.8374 69.6688 16.674C68.7571 17.6326 67.5768 18.3081 66.2749 18.6165C67.0723 18.751 67.8454 18.9981 68.57 19.35C69.1493 19.6324 69.6685 20.0196 70.1 20.491C70.486 20.921 70.7751 21.4254 70.9484 21.9717C71.1321 22.5545 71.2213 23.1618 71.2127 23.7715C71.2511 24.6112 71.0609 25.4458 70.6614 26.1903C70.2619 26.9348 69.6674 27.5626 68.9386 28.0096C67.441 28.9559 65.241 29.4268 62.3386 29.4223H54.9807ZM57.4774 17.7132H62.6794C63.3274 17.7126 63.9742 17.658 64.6128 17.5502C65.2361 17.4461 65.8405 17.2539 66.4071 16.9796C66.932 16.716 67.3832 16.3313 67.7215 15.859C68.0779 15.3244 68.2598 14.6968 68.2431 14.0592C68.279 13.4692 68.1425 12.8814 67.8495 12.3643C67.5564 11.8472 67.1189 11.4222 66.5879 11.1387C65.2491 10.456 63.7504 10.1282 62.2413 10.1878C60.979 10.1878 59.7683 10.677 58.8751 11.5481C57.9819 12.4191 57.4792 13.6007 57.4774 14.8334V17.7132ZM57.4774 27.4459H62.3039C63.941 27.536 65.5755 27.2279 67.0608 26.5494C67.5824 26.2761 68.0132 25.8632 68.3027 25.3591C68.5922 24.855 68.7284 24.2807 68.6951 23.7036C68.735 22.8598 68.4468 22.0326 67.8884 21.3876C67.2991 20.7766 66.5481 20.337 65.7186 20.1175C64.7318 19.8337 63.708 19.6919 62.6794 19.6964H57.4774V27.4459Z" fill="white"/>
<path d="M76.6859 22.4132C76.6729 23.361 76.8575 24.3015 77.2284 25.1774C77.5757 25.9886 78.1614 26.6811 78.9114 27.1675C79.775 27.6934 80.7806 27.9537 81.7976 27.9146C82.8166 27.9334 83.8208 27.6747 84.6977 27.1675C85.0316 26.9752 85.3283 26.7269 85.5739 26.4339C85.8898 26.0392 86.2911 25.7175 86.7492 25.4921C87.2073 25.2666 87.7108 25.1429 88.2236 25.1299H88.6201C88.4509 26.089 87.9905 26.9764 87.2987 27.6768C86.6116 28.3606 85.7746 28.8831 84.8506 29.205C83.882 29.5525 82.8573 29.7273 81.8254 29.7212C80.4303 29.748 79.0507 29.4327 77.8126 28.8043C76.6647 28.2053 75.7236 27.2885 75.1072 26.1691C74.4306 24.8855 74.098 23.4555 74.1406 22.0124C74.1071 20.5581 74.4065 19.1149 75.0168 17.7879C75.5638 16.6277 76.4555 15.655 77.5761 14.9965C78.8052 14.306 80.2065 13.9627 81.6237 14.0049C82.9744 13.9621 84.3122 14.274 85.4974 14.9082C86.5526 15.5038 87.3969 16.3994 87.9176 17.4755C88.5033 18.7225 88.7888 20.084 88.7522 21.4555V22.4132H76.6859ZM76.6859 20.7899H86.325C86.3381 19.9195 86.1627 19.0562 85.8104 18.2565C85.4855 17.5113 84.9376 16.8792 84.2386 16.4431C83.4043 15.9977 82.4661 15.7711 81.5153 15.7854C80.5646 15.7997 79.6339 16.0544 78.814 16.5246C78.1135 16.9976 77.5581 17.648 77.2075 18.406C76.8619 19.1452 76.6885 19.9502 76.6998 20.7627L76.6859 20.7899Z" fill="white"/>
<path d="M96.8543 29.7143C95.8821 29.7352 94.9161 29.5594 94.0168 29.1982C93.2514 28.8897 92.5925 28.3735 92.1182 27.7107C91.6433 27.024 91.4001 26.2095 91.4227 25.3811C91.3733 24.6526 91.5215 23.9243 91.8524 23.2696C92.1833 22.6149 92.6852 22.0571 93.3074 21.6524C94.5593 20.8464 96.59 20.4072 99.3997 20.3348L102.606 20.2465V19.0172C102.631 18.573 102.556 18.1288 102.387 17.7158C102.217 17.3028 101.957 16.931 101.625 16.6264C100.765 15.9699 99.6802 15.6589 98.5929 15.7571C97.6596 15.7346 96.7373 15.9574 95.9224 16.4023C95.6103 16.5774 95.3344 16.8078 95.1087 17.0815C94.8013 17.4908 94.402 17.826 93.9416 18.0614C93.4811 18.2968 92.9716 18.4263 92.452 18.4399H92.2156C92.25 17.5626 92.5582 16.7166 93.0988 16.0152C93.6718 15.3119 94.4358 14.78 95.3034 14.4802C96.3983 14.0984 97.5558 13.9165 98.7181 13.9437C99.9025 13.9095 101.083 14.0962 102.195 14.4938C103.049 14.8136 103.778 15.3859 104.282 16.1306C104.779 16.9508 105.021 17.895 104.977 18.8474V29.4223C104.396 29.4233 103.837 29.2071 103.414 28.8181C102.991 28.4291 102.737 27.8968 102.703 27.3304V26.4882C102.161 27.5679 101.275 28.4471 100.179 28.9944C99.1393 29.4733 98.0035 29.7192 96.8543 29.7143ZM97.5498 28.0028C98.158 28.0025 98.7619 27.9038 99.3371 27.7107C99.9175 27.5214 100.466 27.249 100.964 26.9025C101.423 26.5912 101.823 26.2052 102.147 25.7615C102.432 25.3897 102.594 24.942 102.613 24.4778V21.7611L99.9352 21.8086C98.7784 21.7984 97.6247 21.9261 96.4996 22.189C95.7429 22.3476 95.0509 22.7209 94.5106 23.2621C94.0619 23.7936 93.8314 24.4689 93.8638 25.157C93.8456 25.5596 93.9301 25.9603 94.1098 26.3231C94.2894 26.6858 94.5586 26.9993 94.8931 27.2353C95.6707 27.7696 96.6067 28.0393 97.5567 28.0028H97.5498Z" fill="white"/>
<path d="M114.728 16.0017H112.753V25.7616C112.73 26.1967 112.791 26.6322 112.933 27.0452C112.992 27.1764 113.084 27.2915 113.199 27.3803C113.314 27.4691 113.45 27.5289 113.594 27.5546C114.029 27.6421 114.472 27.6809 114.915 27.6701H114.992C115.204 27.6692 115.415 27.7093 115.612 27.7881C115.808 27.8668 115.987 27.9828 116.137 28.1292C116.288 28.2756 116.407 28.4496 116.489 28.6412C116.57 28.8328 116.612 29.0383 116.612 29.2458C116.318 29.3343 116.015 29.3913 115.708 29.4156C115.232 29.4623 114.754 29.4849 114.276 29.4835C113.434 29.5237 112.593 29.3822 111.814 29.0692C111.258 28.8311 110.817 28.3933 110.583 27.8467C110.325 27.1978 110.204 26.5047 110.228 25.8091V16.0017H107.537C107.533 15.7758 107.575 15.5514 107.661 15.3415C107.746 15.1316 107.873 14.9403 108.035 14.7786C108.197 14.617 108.39 14.4882 108.602 14.3997C108.815 14.3112 109.044 14.2647 109.275 14.263H110.277L110.624 11.7024C110.693 11.2077 110.941 10.7536 111.325 10.4231C111.708 10.0927 112.2 9.90788 112.711 9.90259V14.263H116.459C116.463 14.717 116.283 15.1542 115.959 15.4797C115.635 15.8052 115.193 15.9927 114.728 16.0017Z" fill="white"/>
<path d="M6.77713 26.6309V16.5857C6.73915 13.7153 7.52906 10.8925 9.05655 8.43986C10.584 5.98727 12.7874 4.00398 15.4148 2.71677C17.9118 1.57274 20.6406 0.9924 23.3986 1.01881C26.3436 1.13076 29.2247 1.88991 31.8276 3.23974C36.4246 5.65764 39.0465 10.5342 39.2065 15.6213V26.6445" stroke="#00AA61" stroke-width="2" stroke-miterlimit="10" stroke-linecap="round"/>
<path d="M39.9854 25.2793C40.8051 25.2325 41.5932 24.954 42.2538 24.4777C42.9144 24.0013 43.4189 23.3478 43.7061 22.5965C44.2888 21.3263 44.3608 19.8886 43.9078 18.5689C43.6419 17.7595 43.1177 17.0545 42.4119 16.557C41.7061 16.0596 40.8557 15.796 39.9854 15.8047V25.2793Z" fill="#00AA61" stroke="#00AA61" stroke-width="3" stroke-miterlimit="10"/>
<path d="M6.22071 25.2793C5.40049 25.2342 4.61157 24.9563 3.95067 24.4798C3.28977 24.0033 2.78561 23.3488 2.49999 22.5965C1.91502 21.3272 1.84054 19.8894 2.29135 18.569C2.55849 17.759 3.08399 17.0537 3.791 16.5564C4.498 16.059 5.34941 15.7956 6.22071 15.8047V25.2793Z" fill="#00AA61" stroke="#00AA61" stroke-width="3" stroke-miterlimit="10"/>
<path d="M6.7771 20.9801L12.16 20.8374H12.2991V20.9801L12.3686 24.1858L12.4034 25.8091C12.3957 26.3269 12.4283 26.8446 12.5007 27.3576C12.586 27.8364 12.7895 28.2877 13.0937 28.6724C13.3979 29.057 13.7935 29.3634 14.2464 29.565C15.1018 29.9521 16.0824 29.4088 16.6387 28.6345C16.9232 28.2434 17.1155 27.7958 17.2021 27.3237C17.2477 27.0886 17.2686 26.8497 17.2647 26.6105V25.8091L17.2229 22.5965L17.1395 16.1782V12.9657V10.5478C17.1338 10.2478 17.1547 9.94778 17.2021 9.65127C17.2949 9.02049 17.5451 8.42169 17.9308 7.90765C18.3165 7.39361 18.8257 6.98011 19.4136 6.70361C19.7383 6.55314 20.0917 6.47058 20.4509 6.46122C20.8102 6.45187 21.1676 6.51592 21.5 6.64928C22.1171 6.91933 22.6429 7.35509 23.0161 7.90577C23.3704 8.43734 23.5942 9.04169 23.6699 9.67165C23.6802 9.8277 23.6802 9.98424 23.6699 10.1403V11.3492V14.5618L23.7046 20.9801V27.3984V30.2102C23.6973 30.321 23.6973 30.4322 23.7046 30.543C23.7326 30.9721 23.8759 31.3864 24.1201 31.7441C24.3643 32.1018 24.7007 32.3903 25.0955 32.5806C25.4612 32.7593 25.8787 32.8096 26.2778 32.7232C26.69 32.6095 27.055 32.3718 27.321 32.044C27.607 31.7161 27.799 31.3201 27.8774 30.8962C27.9334 30.4001 27.952 29.9007 27.933 29.402L27.9748 22.9837L28.0582 16.5654L28.0791 13.3664C28.083 12.7601 28.2446 12.1646 28.5487 11.6359C28.8528 11.1073 29.2895 10.6627 29.8177 10.344C30.3678 10.0116 31.0213 9.88155 31.6607 9.97728C32.2753 10.1 32.8334 10.4118 33.2533 10.867C33.662 11.3121 33.9406 11.8564 34.06 12.4427C34.1199 12.7263 34.1456 13.0158 34.1365 13.3053V14.1067L33.9975 20.525L33.8514 20.3892L39.2482 20.525L33.8514 20.6677H33.7123V20.5182L33.5732 14.0999V13.2985C33.5691 13.0534 33.5365 12.8096 33.4759 12.5718C33.3564 12.1063 33.117 11.6784 32.7804 11.3289C32.4602 10.9838 32.0368 10.7462 31.5703 10.6497C31.1101 10.5963 30.6457 10.7072 30.2628 10.9621C29.8634 11.2206 29.5374 11.5733 29.3149 11.9877C29.0924 12.4021 28.9807 12.8647 28.9901 13.3325L29.0319 16.5382L29.1223 22.9565L29.157 29.3748V30.2238C29.1691 30.5285 29.1481 30.8335 29.0944 31.1339C28.9782 31.7686 28.6955 32.3629 28.2738 32.859C27.8355 33.3689 27.2484 33.7361 26.5908 33.9118C25.9122 34.0724 25.1977 34.0004 24.567 33.708C23.9677 33.4296 23.4534 33.0029 23.0752 32.4703C22.697 31.9377 22.468 31.3178 22.4111 30.672C22.4111 30.5226 22.4111 30.346 22.4111 30.2102V27.3984V20.9801V14.5618V11.3492V10.1878C22.4111 10.0792 22.4111 9.9637 22.4111 9.85503C22.3611 9.41735 22.2089 8.99675 21.966 8.6257C21.7386 8.27413 21.4128 7.99363 21.0271 7.81747C20.8559 7.74062 20.6696 7.70083 20.4812 7.70083C20.2927 7.70083 20.1065 7.74062 19.9352 7.81747C19.5329 8.01235 19.1848 8.29947 18.9208 8.6543C18.6568 9.00913 18.4846 9.42111 18.4191 9.85503C18.379 10.0792 18.3627 10.3068 18.3704 10.5342V12.9385V16.1511L18.287 22.5694L18.134 25.8091V26.6105C18.1294 26.9049 18.0968 27.1982 18.0366 27.4867C17.912 28.0699 17.658 28.6194 17.2925 29.0963C16.9314 29.5736 16.4531 29.9544 15.9016 30.2034C15.6046 30.3312 15.2837 30.3972 14.9592 30.3972C14.6347 30.3972 14.3138 30.3312 14.0169 30.2034C13.4762 29.9488 13.0084 29.5675 12.6553 29.0935C12.3022 28.6194 12.0747 28.0674 11.9931 27.4867C11.9155 26.9309 11.8876 26.3696 11.9096 25.8091L11.9444 24.1994L12.0139 20.9937L12.16 21.1295L6.7771 20.9801Z" fill="#00AA61"/>
</svg>
